<?xml version="1.0" encoding="utf-8"?>
<!-- Generator: Adobe Illustrator 16.0.4, SVG Export Plug-In . SVG Version: 6.00 Build 0)  -->
<!DOCTYPE svg PUBLIC "-//W3C//DTD SVG 1.1//EN" "http://www.w3.org/Graphics/SVG/1.1/DTD/svg11.dtd">
<svg version="1.1" id="Ebene_1" xmlns="http://www.w3.org/2000/svg" xmlns:xlink="http://www.w3.org/1999/xlink" x="0px" y="0px"
	 width="100px" height="99.3px" viewBox="0 0 100 99.3" style="enable-background:new 0 0 100 99.3;" xml:space="preserve">
<g id="Webdesign" style="display:none;">
	<polyline style="display:inline;fill:none;stroke:#1D1D1B;stroke-width:3;stroke-linecap:square;stroke-miterlimit:10;" points="
		71.4,67.2 1.5,67.2 1.5,18.5 87.3,18.5 87.3,45.2 	"/>
	<polyline style="display:inline;fill:none;stroke:#1D1D1B;stroke-width:3;stroke-linecap:square;stroke-miterlimit:10;" points="
		44.4,67.2 44.4,75.7 24.7,75.7 	"/>
	
		<line style="display:inline;fill:none;stroke:#1D1D1B;stroke-width:3;stroke-linecap:square;stroke-miterlimit:10;" x1="64.1" y1="75.7" x2="44.4" y2="75.7"/>
	
		<rect x="78.4" y="52.3" style="display:inline;fill:none;stroke:#1D1D1B;stroke-width:3;stroke-linecap:square;stroke-miterlimit:10;" width="20.1" height="29.7"/>
</g>
<g id="Print">
	<polyline style="fill:none;stroke:#1D1D1B;stroke-width:3;stroke-miterlimit:10;" points="76.7,30.4 76.7,97.9 17.9,97.9 17.9,15 
		61.5,15 	"/>
	<polygon style="fill:none;stroke:#1D1D1B;stroke-width:3;stroke-miterlimit:10;" points="41.4,51 44.6,39.6 74.3,9.5 83.4,18.6 
		53.7,48.3 	"/>
	<polygon style="fill:none;stroke:#1D1D1B;stroke-width:3;stroke-miterlimit:10;" points="77.5,6.5 86.6,15.5 91.8,9.4 91.8,5 
		88.6,1.7 84.1,1.5 	"/>
	<line style="fill:none;stroke:#1D1D1B;stroke-width:3;stroke-miterlimit:10;" x1="27.8" y1="83.7" x2="66.7" y2="83.7"/>
	<line style="fill:none;stroke:#1D1D1B;stroke-width:3;stroke-miterlimit:10;" x1="27.8" y1="71.9" x2="66.7" y2="71.9"/>
	<line style="fill:none;stroke:#1D1D1B;stroke-width:3;stroke-miterlimit:10;" x1="27.8" y1="59.5" x2="66.7" y2="59.5"/>
</g>
<g id="Support" style="display:none;">
	<g style="display:inline;">
		<path style="fill:#1D1D1B;" d="M50.5,2.7c25.8,0,46.8,21,46.8,46.8c0,25.8-21,46.8-46.8,46.8c-25.8,0-46.8-21-46.8-46.8
			C3.7,23.7,24.7,2.7,50.5,2.7 M50.5-0.3C23-0.3,0.7,22,0.7,49.5C0.7,77,23,99.3,50.5,99.3c27.5,0,49.8-22.3,49.8-49.8
			C100.3,22,78-0.3,50.5-0.3L50.5-0.3z"/>
	</g>
	<polyline style="display:inline;fill:none;stroke:#1D1D1B;stroke-width:3;stroke-miterlimit:10;" points="50.5,21.7 50.5,52.3 
		76.6,52.3 	"/>
</g>
<g id="UI_x2F_UX" style="display:none;">
	<path style="display:inline;fill:none;stroke:#1D1D1B;stroke-width:3;stroke-miterlimit:10;" d="M50.4,2.4
		c26.4,0,47.7,21.4,47.7,47.7c0,26.4-21.4,47.7-47.7,47.7S2.7,76.5,2.7,50.1C2.7,23.7,24.1,2.4,50.4,2.4"/>
	<circle style="display:inline;fill:none;stroke:#1D1D1B;stroke-width:3;stroke-miterlimit:10;" cx="50.4" cy="36.6" r="17.9"/>
	<path style="display:inline;fill:none;stroke:#1D1D1B;stroke-width:3;stroke-miterlimit:10;" d="M39.5,50.8c0,0-12.9,4.9-22.8,33"
		/>
	<path style="display:inline;fill:none;stroke:#1D1D1B;stroke-width:3;stroke-miterlimit:10;" d="M61.5,50.8c0,0,12.9,4.9,22.8,33"
		/>
</g>
<g id="Foto" style="display:none;">
	<g style="display:inline;">
		<path style="fill:#1D1D1B;" d="M32.9,17.5v6v3l3,0L97,26.5v54.5H3l0.2-54.8l7.7,0l3,0l0-3l0-5.8H32.9 M49.6,78.8
			c13.6,0,24.6-11,24.6-24.6s-11-24.6-24.6-24.6S25,40.7,25,54.2S36,78.8,49.6,78.8 M35.9,14.5H10.9l0,8.8l-10.7,0L0,84.1h100V23.5
			l-64.1-0.1V14.5L35.9,14.5z M49.6,75.8C37.7,75.8,28,66.2,28,54.2c0-11.9,9.7-21.6,21.6-21.6c11.9,0,21.6,9.7,21.6,21.6
			C71.2,66.2,61.5,75.8,49.6,75.8L49.6,75.8z"/>
	</g>
</g>
<g id="Konzept_1_" style="display:none;">
	<g style="display:inline;">
		<polyline style="fill:none;stroke:#1D1D1B;stroke-width:3;stroke-miterlimit:10;" points="75.9,40.5 75.9,15.3 2.3,15.3 2.3,57.5 
			11.9,57.5 8.2,87.4 27.5,57.5 55.9,57.5 		"/>
	</g>
	<g style="display:inline;">
		<polyline style="fill:none;stroke:#1D1D1B;stroke-width:3;stroke-miterlimit:10;" points="62.4,68.1 62.4,46.5 97.6,46.5 
			97.6,66.7 93,66.7 94.8,80.9 85.6,66.7 62.4,66.7 		"/>
	</g>
</g>
<g id="App" style="display:none;">
	<g style="display:inline;">
		<path d="M91,69.6l-3.2-3.2c10.3-10.3,10.3-27.1,0-37.4l3.2-3.2C103,38,103,57.6,91,69.6z M85.5,31.4l-3.1,3.2
			c7.3,7.3,7.3,19.2,0,26.5l3.1,3.2C94.6,55.1,94.6,40.4,85.5,31.4z M79.9,37l-3.2,3.2c4.2,4.2,4.2,11,0,15.2l3.2,3.2
			C85.8,52.6,85.8,42.9,79.9,37z M9.1,69.6l3.2-3.2C2,56.1,2,39.4,12.3,29.1l-3.2-3.2C-2.9,38-2.9,57.6,9.1,69.6z M14.6,64.1
			l3.1-3.2c-7.3-7.3-7.3-19.2,0-26.5l-3.1-3.2C5.6,40.4,5.6,55.1,14.6,64.1z M20.2,58.5l3.2-3.2c-4.2-4.2-4.2-11,0-15.2L20.2,37
			C14.3,42.9,14.3,52.6,20.2,58.5z"/>
	</g>
	
		<rect x="30.5" y="11.2" style="display:inline;fill:none;stroke:#000000;stroke-width:3;stroke-miterlimit:10;" width="40" height="72"/>
	
		<line style="display:inline;fill:none;stroke:#000000;stroke-width:3;stroke-miterlimit:10;" x1="32" y1="14.2" x2="69" y2="14.2"/>
	
		<line style="display:inline;fill:none;stroke:#000000;stroke-width:8;stroke-miterlimit:10;" x1="32" y1="77.7" x2="69" y2="77.7"/>
	<line style="display:inline;fill:none;stroke:#FFFFFF;stroke-miterlimit:10;" x1="43" y1="13.2" x2="58" y2="13.2"/>
	<circle style="display:inline;fill:#FFFFFF;" cx="50.1" cy="78.8" r="2.8"/>
</g>
</svg>
